<svg id="SvgjsSvg1018" width="288" height="288" xmlns="http://www.w3.org/2000/svg" version="1.1" xmlns:xlink="http://www.w3.org/1999/xlink" xmlns:svgjs="http://svgjs.com/svgjs"><defs id="SvgjsDefs1019"></defs><g id="SvgjsG1020"><svg xmlns="http://www.w3.org/2000/svg" data-name="Layer 1" viewBox="0 0 32 32" width="288" height="288"><path fill="none" stroke="#dcedc8" stroke-linecap="round" stroke-linejoin="round" d="M23.5,27.5H6.5l-1-15.19a.76.76,0,0,1,.77-.81H10a1.11,1.11,0,0,1,.89.44l1.22,1.56H23.5v2" class="colorStroke29abe2 svgStroke"></path><path fill="none" stroke="#dcedc8" stroke-linecap="round" stroke-linejoin="round" d="M26.3,20.7l.84-3.2H9.25L6.5,27.5H23.41a1.42,1.42,0,0,0,1.37-1.06l.76-2.88" class="colorStroke29abe2 svgStroke"></path><path fill="none" stroke="#dcedc8" stroke-linecap="round" stroke-linejoin="round" d="M16.5,24.5h0a1.42,1.42,0,0,1,2,0h0" class="colorStroke29abe2 svgStroke"></path><line x1="13.5" x2="14.5" y1="21.5" y2="21.5" fill="none" stroke="#dcedc8" stroke-linecap="round" stroke-linejoin="round" class="colorStroke29abe2 svgStroke"></line><line x1="20.5" x2="21.5" y1="21.5" y2="21.5" fill="none" stroke="#dcedc8" stroke-linecap="round" stroke-linejoin="round" class="colorStroke29abe2 svgStroke"></line><path fill="none" stroke="#dcedc8" stroke-linecap="round" stroke-linejoin="round" d="M20.62,3.61C18.25,4,16.5,5.37,16.5,7a2.57,2.57,0,0,0,.7,1.7l-.7,2.8,2.86-1.43A8.12,8.12,0,0,0,22,10.5c3,0,5.5-1.57,5.5-3.5,0-1.6-1.69-2.95-4-3.37" class="colorStroke29abe2 svgStroke"></path><line x1="21.25" x2="22.75" y1="6.25" y2="7.75" fill="none" stroke="#dcedc8" stroke-linecap="round" stroke-linejoin="round" class="colorStroke29abe2 svgStroke"></line><line x1="22.75" x2="21.25" y1="6.25" y2="7.75" fill="none" stroke="#dcedc8" stroke-linecap="round" stroke-linejoin="round" class="colorStroke29abe2 svgStroke"></line></svg></g></svg>