<svg xmlns="http://www.w3.org/2000/svg" id="Layer_1" x="0" y="0" version="1.1" viewBox="0 0 64 65" xml:space="preserve"><path fill="#e7d0a8" d="M50.7 62H14.9c-1.2 0-2.2-1-2.2-2.2V11.4c0-1.2 1-2.2 2.2-2.2h35.7c1.2 0 2.2 1 2.2 2.2v48.4c.1 1.2-.9 2.2-2.1 2.2z"/><path fill="#fff" d="M16.3 62h-1.6c-1.2 0-2.1-1-2.1-2.1V11.3c0-1.2 1-2.1 2.1-2.1h1.6V62z"/><path fill="#ffe4b8" d="M47.1 62H17.4c-1.4 0-2.5-1.1-2.5-2.5V11.6c0-1.4 1.1-2.5 2.5-2.5H47c1.4 0 2.5 1.1 2.5 2.5v47.9c.1 1.4-1 2.5-2.4 2.5z"/><path fill="#fff" d="M16.3 12.4H49v45.9H16.3z"/><circle cx="56.4" cy="42.6" r=".9" fill="none" stroke="#f16723" stroke-linecap="round" stroke-linejoin="round" stroke-miterlimit="10"/><circle cx="52.9" cy="3.3" r=".3" fill="#231f20"/><circle cx="59.5" cy="57.4" r=".3" fill="#231f20"/><circle cx="55.7" cy="30" r=".3" fill="#231f20"/><circle cx="4.5" cy="36.6" r=".3" fill="#231f20"/><circle cx="15" cy="5.5" r=".3" fill="#231f20"/><path fill="none" stroke="#f16723" stroke-linecap="round" stroke-linejoin="round" stroke-miterlimit="10" d="M7.2 53h1.9M8.1 53.9V52"/><circle cx="49.6" cy="5.8" r=".4" fill="#231f20"/><circle cx="8.2" cy="34" r=".4" fill="#231f20"/><circle cx="57.9" cy="27.9" r=".4" fill="#231f20"/><circle cx="55.5" cy="49.2" r=".4" fill="#231f20"/><circle cx="7.5" cy="10.8" r="1.1" fill="none" stroke="#fbd108" stroke-linecap="round" stroke-linejoin="round" stroke-miterlimit="10"/><path fill="none" stroke="#231f20" stroke-linecap="round" stroke-linejoin="round" stroke-miterlimit="10" stroke-width="1.5" d="M12.6 44V33.6M52.7 29.5v30c0 1.4-1.1 2.5-2.5 2.5H15.1c-1.4 0-2.5-1.1-2.5-2.5V46M52.7 25.2v2.3M12.6 31.7v-20c0-1.4 1.1-2.5 2.5-2.5h35.1c1.4 0 2.5 1.1 2.5 2.5v11.4"/><path fill="none" stroke="#231f20" stroke-linecap="round" stroke-linejoin="round" stroke-miterlimit="10" stroke-width="1.5" d="M16.3 12.4H49v45.9H16.3zM21.1 26.4h23.1M21.1 20.5h15.6M21.1 30h23.1M21.1 33.6h23.1M21.1 37.3h23.1M21.1 40.9h23.1M21.1 44.5h23.1M21.1 48.2h23.1M21.1 51.8h15.6"/><path fill="#4ea23e" d="M39.6 6.3h-3.8V5.1c0-1.7-1.4-3.1-3.1-3.1-1.7 0-3.1 1.4-3.1 3.1v1.2h-3.8c-2.4 0-4.4 2-4.4 4.4v1.1c0 1 .8 1.7 1.7 1.7h19.2c1 0 1.7-.8 1.7-1.7v-1.1c0-2.4-2-4.4-4.4-4.4z"/><path fill="#fff" d="M36.8 6.3h-3.2V5.1C33.6 3.4 32.4 2 31 2c-1.4 0-2.6 1.4-2.6 3.1v1.2h-3.2c-2.1 0-3.7 2-3.7 4.4v1.1c0 1 .7 1.7 1.5 1.7h16c.8 0 1.5-.8 1.5-1.7v-1.1c0-2.4-1.7-4.4-3.7-4.4z"/><path fill="#80c244" d="M37.5 6.3H36V5.1C36 3.4 34 2 32.7 2c-1.3 0-3.1 1.4-3.1 3.1v1.2H27c-1.8 0-3.3 2-3.3 4.4v1.1c0 1 .6 1.7 1.3 1.7h14.5c.7 0 1.3-.8 1.3-1.7v-1.1c0-2.5-1.5-4.4-3.3-4.4z"/><path fill="none" stroke="#231f20" stroke-linecap="round" stroke-linejoin="round" stroke-miterlimit="10" stroke-width="1.5" d="M39.6 6.3h-3.8V5.1c0-1.7-1.4-3.1-3.1-3.1-1.7 0-3.1 1.4-3.1 3.1v1.2h-3.8c-2.4 0-4.4 2-4.4 4.4v1.1c0 1 .8 1.7 1.7 1.7h19.2c1 0 1.7-.8 1.7-1.7v-1.1c0-2.4-2-4.4-4.4-4.4z"/><path fill="none" stroke="#fff" stroke-linecap="round" stroke-miterlimit="10" stroke-width="1.5" d="M27.7 8.2c-1.8 0-3.3 1.5-3.3 3.3"/><path fill="none" stroke="#fbd108" stroke-linecap="round" stroke-linejoin="round" stroke-miterlimit="10" d="M25.1 3.3H27M26.1 4.2V2.3"/></svg>